<?xml version="1.0" encoding="utf-8"?>
<svg version="1.1" xmlns:xlink="http://www.w3.org/1999/xlink" width="16px" height="16px" xmlns="http://www.w3.org/2000/svg">
  <g transform="matrix(1 0 0 1 -177 -253 )">
    <path d="M 183.567159357684 259.027864045  L 185 254.61803398875  L 186.432840642316 259.027864045  L 191.069610361774 259.027864045  L 187.318384859729 261.753288904374  L 188.751225502045 266.163118960625  L 185 263.437694101251  L 181.248774497955 266.163118960625  L 182.681615140271 261.753288904374  L 178.930389638226 259.027864045  L 183.567159357684 259.027864045  Z " fill-rule="nonzero" fill="#e6652c" stroke="none" />
    <path d="M 183.203888093682 258.527864045  L 185 253  L 186.796111906318 258.527864045  L 192.608452130361 258.527864045  L 187.906170112021 261.944271909999  L 189.70228201834 267.472135955  L 185 264.055728090001  L 180.29771798166 267.472135955  L 182.093829887979 261.944271909999  L 177.391547869639 258.527864045  L 183.203888093682 258.527864045  Z M 185 256.2360679775  L 183.930430621687 259.527864045  L 180.469231406814 259.527864045  L 183.269400392564 261.562305898749  L 182.199831014251 264.85410196625  L 185 262.819660112501  L 187.800168985749 264.85410196625  L 186.730599607436 261.562305898749  L 189.530768593186 259.527864045  L 186.069569378313 259.527864045  L 185 256.2360679775  Z " fill-rule="nonzero" fill="#e6652c" stroke="none" />
  </g>
</svg>