<?xml version="1.0" encoding="utf-8"?>
<svg version="1.1" xmlns:xlink="http://www.w3.org/1999/xlink" width="31px" height="31px" xmlns="http://www.w3.org/2000/svg">
  <g transform="matrix(1 0 0 1 -54 -461 )">
    <path d="M 69.5 465  C 75.94 465  81 470.06  81 476.5  C 81 482.94  75.94 488  69.5 488  C 63.06 488  58 482.94  58 476.5  C 58 470.06  63.06 465  69.5 465  Z " fill-rule="nonzero" fill="#ffffff" stroke="none" fill-opacity="0" />
    <path d="M 69.5 463.5  C 76.78 463.5  82.5 469.22  82.5 476.5  C 82.5 483.78  76.78 489.5  69.5 489.5  C 62.22 489.5  56.5 483.78  56.5 476.5  C 56.5 469.22  62.22 463.5  69.5 463.5  Z " stroke-width="5" stroke="#33e3c0" fill="none" />
  </g>
</svg>