<?xml version="1.0" encoding="utf-8"?>
<svg version="1.1" xmlns:xlink="http://www.w3.org/1999/xlink" width="20px" height="20px" xmlns="http://www.w3.org/2000/svg">
  <g transform="matrix(1 0 0 1 -457 -87 )">
    <path d="M 467 88  C 472.04 88  476 91.96  476 97  C 476 102.04  472.04 106  467 106  C 461.96 106  458 102.04  458 97  C 458 91.96  461.96 88  467 88  Z " fill-rule="nonzero" fill="#ffffff" stroke="none" />
    <path d="M 467 88  C 472.04 88  476 91.96  476 97  C 476 102.04  472.04 106  467 106  C 461.96 106  458 102.04  458 97  C 458 91.96  461.96 88  467 88  Z " stroke-width="2" stroke="#ffa64d" fill="none" />
  </g>
</svg>