<?xml version="1.0" encoding="utf-8"?>
<svg version="1.1" xmlns:xlink="http://www.w3.org/1999/xlink" width="19px" height="18px" xmlns="http://www.w3.org/2000/svg">
  <g transform="matrix(1 0 0 1 -659 -212 )">
    <path d="M 11.1713988650498 13.090921875  L 13.7494296097637 13.090904296875  L 13.7494296097637 10.636365234375  C 13.7494296097637 10.1844954523257  14.1341694587203 9.8181826171875  14.6087701142724 9.8181826171875  C 15.0833707698244 9.8181826171875  15.4681106187811 10.1844954523257  15.4681106187811 10.636365234375  L 15.4681106187811 13.090904296875  L 18.046141363495 13.090904296875  C 18.5207420190471 13.090904296875  18.9054818680037 13.4572171320132  18.9054818680037 13.9090869140625  C 18.9054818680037 14.3609566961118  18.5207420190471 14.72726953125  18.046141363495 14.72726953125  L 15.4681106187811 14.72726953125  L 15.4681106187811 17.181826171875  C 15.4681106187811 17.6336910998591  15.083374902768 18  14.6087793454602 18  C 14.1341837881524 18  13.7494480721393 17.6336910998591  13.7494480721393 17.181826171875  L 13.7494480721393 14.72726953125  L 11.1713988650498 14.72726953125  C 10.6968033077419 14.72726953125  10.3120675917289 14.3609606311091  10.3120675917289 13.909095703125  C 10.3120675917289 13.4572307751409  10.6968033077419 13.090921875  11.1713988650498 13.090921875  Z M 18.9054726368159 3.27273046875  L 18.9054726368159 10.636365234375  C 18.9054726368159 11.0882301623591  18.5207369208028 11.4545390625  18.046141363495 11.4545390625  C 17.5715458061872 11.4545390625  17.1868100901741 11.0882301623591  17.1868100901741 10.636365234375  L 17.1868100901741 3.2726953125  C 17.1868100901741 2.3689654561541  16.417338658148 1.63634765587234  15.4681475435323 1.63634765587234  L 6.87472403606965 1.63634765625  C 4.02710164034862 1.63634765621853  1.71866254660874 3.83422466704771  1.71866254660874 6.54544335934353  L 1.71866254664179 14.72726953125  C 1.71866254654263 15.6310169653432  2.4881339785688 16.363634765625  3.43732509318442 16.363634765625  L 11.1713988650498 16.363634765625  C 11.6459995206018 16.363634765625  12.0307393695585 16.7299476007632  12.0307393695585 17.1818173828125  C 12.0307393695585 17.6336871648618  11.6459995206018 18  11.1713988650498 18  L 3.43732509328358 18  C 1.53893689110371 17.9999805838867  0 16.5347349301666  0 14.72726953125  L 0 6.5454609375  C 0 2.93050268110558  3.07791879165318 0  6.87472403606965 0  L 15.4681106187811 0  C 17.3665132409893 0  18.9054726368159 1.46525134055279  18.9054726368159 3.27273046875  Z " fill-rule="nonzero" fill="#ffffff" stroke="none" transform="matrix(1 0 0 1 659 212 )" />
  </g>
</svg>