<?xml version="1.0" encoding="utf-8"?>
<svg version="1.1" xmlns:xlink="http://www.w3.org/1999/xlink" width="54px" height="58px" xmlns="http://www.w3.org/2000/svg">
  <g transform="matrix(1 0 0 1 -470 -174 )">
    <path d="M 40.269705882353 6.20244897959184  C 37.1746773812995 2.5178177795815  32.5922958473335 0.389951610630545  27.7623529411765 0.394557823129255  C 22.8899960648448 0.386707807668986  18.270769637747 2.55000603204189  15.1755882352941 6.28925170068027  C 14.8294675240289 6.65992691743979  14.6371297612691 7.14690431063694  14.6371297612691 7.65256746490245  C 14.6371297612691 8.75954146959731  15.5401977570516 9.65692120639905  16.6541885847985 9.65692120639905  C 17.2966103509697 9.65692120639905  17.9006109737301 9.35283149841294  18.2805882352941 8.83809523809524  C 20.6127290729774 6.02455386432504  24.0887484605822 4.39465453909513  27.7569318218638 4.39465453909513  C 31.396233022214 4.39465453909513  34.8479778767635 5.99909731971176  37.1805882352941 8.77496598639456  C 37.5623624243189 9.26889702895585  38.1535056544342 9.55841163198444  38.7802608760141 9.55841163198444  C 39.8942517037611 9.55841163198444  40.7973196995435 8.66103189518271  40.7973196995435 7.55405789048784  C 40.7973196995435 7.0538864583228  40.609127696827 6.57178765889125  40.269705882353 6.20244897959184  Z M 31.8631206701688 49.0198635997736  C 31.8631206701688 41.3419872060741  38.125808659051 35.117358630963  45.8523529411765 35.1156462585034  C 48.6257274874134 35.1177290911517  51.3354125905259 35.9419996918795  53.6347058823529 37.4829931972789  L 52.6658823529412 16.6108843537415  C 52.5853854688642 14.3606112162338  50.7387810443261 12.5708174724159  48.4729411764706 12.5469387755102  L 40.5317647058824 12.5469387755102  C 39.5500266771918 12.5473979431063  38.6236674416112 12.9989209233353  38.0223529411765 13.7700680272109  C 35.7025745297025 16.7633184789452  33.6386253836434 19.9440047031119  31.8520588235294 23.2789115646259  C 30.0891176470588 26.585306122449  28.1435294117647 30.0179591836735  26.5473529411765 32.7956462585034  C 26.480285197953 32.8854248426145  26.4440737721568 32.9942679387706  26.4440737721568 33.1060793408074  C 26.4440737721568 33.3937182554132  26.6787292356278 33.626895667338  26.9681914192156 33.626895667338  C 27.0391909178246 33.626895667338  27.1094502052507 33.6125611355566  27.1747058823529 33.5847619047619  L 32.3523529411765 31.8013605442177  C 33.3528756744217 31.4344373180078  34.4741395593962 31.8335541837778  35.0126470588235 32.7482993197279  C 35.1829162205285 33.057339151074  35.2721635350382 33.4039965427987  35.2721635350382 33.7563218607798  C 35.2721635350382 34.6499966303818  34.7027365930121 35.4456799023381  33.8532352941177 35.7390476190476  C 29.3744117647059 37.3172789115646  22.5688235294118 39.6293877551021  21.9970588235294 39.8345578231293  L 21.8382352941176 39.8503401360544  L 21.6952941176471 39.8976870748299  C 21.5543539155132 39.9279724451329  21.4106633725896 39.9438374965394  21.2664705882353 39.9450340136055  C 21.1331562399714 39.9444570662684  21.000201196065 39.9312453078112  20.8694117647059 39.9055782312925  L 20.7502941176471 39.9055782312925  L 20.4961764705882 39.8266666666667  L 20.3532352941176 39.763537414966  L 20.1467647058824 39.6451700680272  L 20.0117647058823 39.5583673469388  C 19.9392661982658 39.5049581480832  19.8703002684196 39.4469699336435  19.8052941176471 39.3847619047619  L 19.7258823529412 39.3137414965986  C 19.3005131740694 38.9710310119096  19.0694660137304 38.4441471812365  19.1064705882353 37.9012244897959  L 16.335 25.52  C 16.0854988894872 24.4961851315077  16.6063327816547 23.4411727262559  17.5738235294118 23.010612244898  C 17.8272113956561 22.908359936681  18.0981135188219 22.8557848627682  18.3715982812409 22.8557848627682  C 19.3639781597172 22.8557848627682  20.2236040646203 23.5397728449269  20.4405882352941 24.5020408163265  L 21.8382352941176 30.7597278911565  C 21.8868546021291 31.0036095949488  22.1021648694906 31.179337058317  22.3523618867231 31.179337058317  C 22.5401827256653 31.179337058317  22.7136453039409 31.0794681623196  22.8070588235294 30.9175510204082  C 24.3952941176471 28.1319727891157  26.3726470588235 24.6677551020408  28.1514705882353 21.3455782312925  C 29.4657057553015 18.8772553005455  30.9240775613914 16.4874161875473  32.5191176470588 14.1882993197279  C 32.6389569272675 14.0139025070463  32.7030656862387 13.8076379021698  32.7030656862387 13.5964617888179  C 32.7030656862387 13.0168257942336  32.2301993734865 12.5469379792941  31.6468892156505 12.5469379792941  C 31.6464555554099 12.5469379792941  31.6460218952057 12.5469382446995  31.6455882352941 13  L 6.24970588235294 13  C 3.98386601449741 12.5708174724159  2.13726158995936 14.3606112162338  2.05676470588235 16.6108843537415  L 0.397058823529412 52.0342857142857  C 0.391022505941309 52.1368827001279  0.388002416530571 52.2396329671767  0.388002416530571 52.3424051475468  C 0.388002416530571 55.233825862022  2.72868741847156 57.5872554241859  5.63823529411765 57  L 34.8617647058823 57  C 32.9192979129729 55.1696658747214  31.8631206701688 52.1401093415049  31.8631206701688 49.0198635997736  Z " fill-rule="nonzero" fill="#fffefe" stroke="none" transform="matrix(1 0 0 1 470 174 )" />
  </g>
</svg>