<?xml version="1.0" encoding="utf-8"?>
<svg version="1.1" xmlns:xlink="http://www.w3.org/1999/xlink" width="50px" height="64px" xmlns="http://www.w3.org/2000/svg">
  <g transform="matrix(1 0 0 1 -94 -174 )">
    <path d="M 37.2381036931818 31.7991071428571  C 37.9239169034091 33.4665178571429  38.2701526988636 35.2544642857143  38.2701526988636 37.1830357142857  C 38.2701526988636 39.1049107142857  37.9239169034091 40.90625  37.2381036931818 42.5736607142857  C 36.5522904829545 44.2477678571429  35.6001420454545 45.7142857142857  34.3883167613636 46.9732142857143  C 33.1831498579545 48.2321428571429  31.7715731534091 49.2098214285714  30.1535866477273 49.9330357142857  C 28.5422585227273 50.6428571428572  26.8110795454545 51.0044642857143  24.9600497159091 51.0044642857143  C 23.1090198863636 51.0044642857143  21.3778409090909 50.6428571428572  19.7665127840909 49.9330357142857  C 18.1485262784091 49.2232142857143  16.7436079545455 48.2321428571429  15.5317826704545 46.9732142857143  C 14.3199573863636 45.7142857142857  13.3744673295455 44.2544642857143  12.6819957386364 42.5803571428571  C 11.9961825284091 40.90625  11.6499467329545 39.1049107142857  11.6499467329545 37.1897321428571  C 11.6499467329545 35.2678571428571  11.9961825284091 33.4665178571429  12.6819957386364 31.7991071428571  C 13.3611505681818 30.125  14.3132990056818 28.6584821428571  15.5317826704545 27.3995535714286  C 16.7436079545455 26.140625  18.1485262784091 25.15625  19.7665127840909 24.4464285714286  C 21.3778409090909 23.7366071428571  23.1090198863636 23.375  24.9600497159091 23.375  C 26.8110795454545 23.375  28.5422585227273 23.7366071428571  30.1535866477273 24.4464285714286  C 31.7649147727273 25.15625  33.1764914772727 26.140625  34.3883167613636 27.3995535714286  C 35.6001420454545 28.6517857142857  36.5522904829545 30.1183035714286  37.2381036931818 31.7991071428571  Z M 6.60289417613636 2  L 43.3971058238636 2  C 45.4345703125 2  46.9193892045454 2.61607142857143  47.8515625 3.84151785714286  C 48.7770774147727 5.08035714285714  49.2365056818182 6.55357142857143  49 8.27455357142857  L 49 55.7254464285714  C 49.2365056818182 57.4464285714286  48.6372514204545 58.9263392857143  47.4587180397727 60.1584821428571  C 46.2735262784091 61.3839285714286  44.775390625 62  42.9776278409091 62  L 6.95578835227273 62  C 5.10475852272727 62  3.61328125 61.3839285714286  2.46803977272727 60.1584821428571  C 1.32945667613636 58.9263392857143  0.763494318181818 57.4464285714286  1 55.7254464285714  L 1 8.28794642857143  C 0.763494318181818 6.56026785714286  1.28284801136364 5.09375  2.33487215909091 3.88839285714286  C 3.37357954545455 2.67633928571429  4.80513139204545 2.08035714285714  6.60289417613636 2  Z M 5.55087002840909 9.33258928571428  L 5.53755326704545 10.6517857142857  C 5.53755326704545 11.1941964285714  5.71732954545454 11.6964285714286  6.07688210227272 12.171875  C 6.42977627840909 12.640625  7.01571377840909 12.875  7.82137784090909 12.875  L 13.2346413352273 12.875  C 14.0469637784091 12.875  14.6395596590909 12.59375  15.0190873579545 12.0245535714286  C 15.3986150568182 11.4553571428571  15.5917080965909 10.8995535714286  15.5917080965909 10.3571428571429  L 15.5917080965909 9.25223214285714  C 15.5917080965909 8.70982142857143  15.3786399147727 8.21428571428571  14.9458451704545 7.77901785714286  C 14.5197088068182 7.33705357142857  13.9271129261364 7.109375  13.1680575284091 7.109375  L 7.97452059659091 7.109375  C 7.17551491477273 7.109375  6.56294389204546 7.34375  6.15678267045455 7.8125  C 5.75062144886364 8.28794642857143  5.55087002840909 8.79017857142857  5.55087002840909 9.33258928571428  Z M 18.0952592329546 54.2120535714286  C 20.2525745738636 55.1696428571429  22.5363991477273 55.6517857142857  24.9600497159091 55.6517857142857  C 27.4303089488636 55.6517857142857  29.7407670454545 55.1696428571429  31.8980823863636 54.2120535714286  C 34.0553977272727 53.2544642857143  35.9463778409091 51.9285714285714  37.5577059659091 50.2611607142857  C 39.1690340909091 48.5870535714286  40.4407848011364 46.625  41.3662997159091 44.3883928571429  C 42.2918146306818 42.1517857142857  42.7512428977273 39.7477678571429  42.7512428977273 37.1830357142857  C 42.7512428977273 34.671875  42.2918146306818 32.2946428571429  41.3662997159091 30.0446428571429  C 40.4407848011364 27.8080357142857  39.1690340909091 25.8459821428571  37.5577059659091 24.171875  C 35.9463778409091 22.4977678571429  34.0553977272727 21.1785714285714  31.8980823863636 20.2209821428571  C 29.7407670454545 19.2633928571429  27.4236505681818 18.78125  24.9600497159091 18.78125  C 22.5430575284091 18.78125  20.2525745738636 19.2633928571429  18.0952592329546 20.2209821428571  C 15.9312855113636 21.1785714285714  14.0469637784091 22.5044642857143  12.4356356534091 24.171875  C 10.8309659090909 25.8459821428571  9.55921519886364 27.8080357142857  8.6270419034091 30.0446428571429  C 7.70818536931819 32.28125  7.24209872159091 34.671875  7.24209872159091 37.1830357142857  C 7.24209872159091 39.7477678571428  7.70818536931819 42.1450892857143  8.6270419034091 44.3883928571429  C 9.55255681818182 46.6316964285714  10.8243075284091 48.5870535714286  12.4356356534091 50.2611607142857  C 14.0469637784091 51.9419642857143  15.9379438920455 53.2544642857143  18.0952592329546 54.2120535714286  Z " fill-rule="nonzero" fill="#ffffff" stroke="none" transform="matrix(1 0 0 1 94 174 )" />
  </g>
</svg>