<?xml version="1.0" encoding="utf-8"?>
<svg version="1.1" xmlns:xlink="http://www.w3.org/1999/xlink" width="50px" height="52px" xmlns="http://www.w3.org/2000/svg">
  <g transform="matrix(1 0 0 1 -16 -9 )">
    <path d="M 41 11  C 53.88 11  64 21.56  64 35  C 64 48.44  53.88 59  41 59  C 28.12 59  18 48.44  18 35  C 18 21.56  28.12 11  41 11  Z " fill-rule="nonzero" fill="#ffffff" stroke="none" />
    <path d="M 41 10.5  C 54.16 10.5  64.5 21.28  64.5 35  C 64.5 48.72  54.16 59.5  41 59.5  C 27.84 59.5  17.5 48.72  17.5 35  C 17.5 21.28  27.84 10.5  41 10.5  Z " stroke-width="3" stroke="#1abc9c" fill="none" />
  </g>
</svg>