<?xml version="1.0" encoding="utf-8"?>
<svg version="1.1" xmlns:xlink="http://www.w3.org/1999/xlink" width="16px" height="16px" xmlns="http://www.w3.org/2000/svg">
  <g transform="matrix(1 0 0 1 -28 -220 )">
    <path d="M 36 221  C 39.92 221  43 224.08  43 228  C 43 231.92  39.92 235  36 235  C 32.08 235  29 231.92  29 228  C 29 224.08  32.08 221  36 221  Z " fill-rule="nonzero" fill="#ffffff" stroke="none" />
    <path d="M 36 221  C 39.92 221  43 224.08  43 228  C 43 231.92  39.92 235  36 235  C 32.08 235  29 231.92  29 228  C 29 224.08  32.08 221  36 221  Z " stroke-width="2" stroke="#063f4a" fill="none" />
  </g>
</svg>